[FORMAT]
TAG:Cuesheet=REM GENRE Zydeco/Cajun
REM DATE 1997
PERFORMER "BeauSoliel"
TITLE "L'Amour ou la Folie"
REM REPLAYGAIN_ALBUM_GAIN -6.54 dB
REM REPLAYGAIN_ALBUM_PEAK 0.972900
FILE "CDImage.wv" WAVE
  TRACK 01 AUDIO
    TITLE "Newz Reel"
    REM REPLAYGAIN_TRACK_GAIN -6.47 dB
    REM REPLAYGAIN_TRACK_PEAK 0.972900
    INDEX 00 00:00:00
    INDEX 01 00:00:32
  TRACK 02 AUDIO
    TITLE "Les Blues de Crève de Faim"
    REM REPLAYGAIN_TRACK_GAIN -4.56 dB
    REM REPLAYGAIN_TRACK_PEAK 0.972900
    INDEX 00 02:18:58
    INDEX 01 02:21:30
  TRACK 03 AUDIO
    TITLE "L'Amour ou la Folie"
    REM REPLAYGAIN_TRACK_GAIN -7.06 dB
    REM REPLAYGAIN_TRACK_PEAK 0.972900
    INDEX 00 06:08:40
    INDEX 01 06:10:47
  TRACK 04 AUDIO
    TITLE "It's A Sin To Tell A Lie (C'est un Péché de Dire un Menterie)"
    REM REPLAYGAIN_TRACK_GAIN -5.28 dB
    REM REPLAYGAIN_TRACK_PEAK 0.972900
    INDEX 00 11:29:30
    INDEX 01 11:31:40
  TRACK 05 AUDIO
    TITLE "Eunice Two-Step"
    REM REPLAYGAIN_TRACK_GAIN -7.72 dB
    REM REPLAYGAIN_TRACK_PEAK 0.972900
    INDEX 00 16:18:13
    INDEX 01 16:21:10
  TRACK 06 AUDIO
    TITLE "Charivari"
    REM REPLAYGAIN_TRACK_GAIN -5.47 dB
    REM REPLAYGAIN_TRACK_PEAK 0.972900
    INDEX 00 20:57:53
    INDEX 01 21:00:37
  TRACK 07 AUDIO
    TITLE "Boudreaux"
    REM REPLAYGAIN_TRACK_GAIN -4.71 dB
    REM REPLAYGAIN_TRACK_PEAK 0.972900
    INDEX 00 26:23:25
    INDEX 01 26:25:65
  TRACK 08 AUDIO
    TITLE "Valse à Pop"
    REM REPLAYGAIN_TRACK_GAIN -5.20 dB
    REM REPLAYGAIN_TRACK_PEAK 0.972900
    INDEX 00 29:25:33
    INDEX 01 29:27:12
  TRACK 09 AUDIO
    TITLE "Can't You See (Tu Vas Voir)"
    REM REPLAYGAIN_TRACK_GAIN -6.17 dB
    REM REPLAYGAIN_TRACK_PEAK 0.972900
    INDEX 00 32:50:25
    INDEX 01 32:53:10
  TRACK 10 AUDIO
    TITLE "Les Blues de la Prison"
    REM REPLAYGAIN_TRACK_GAIN -5.44 dB
    REM REPLAYGAIN_TRACK_PEAK 0.972900
    INDEX 00 35:59:05
    INDEX 01 36:01:62
  TRACK 11 AUDIO
    TITLE "Danse Caribe"
    REM REPLAYGAIN_TRACK_GAIN -7.46 dB
    REM REPLAYGAIN_TRACK_PEAK 0.972900
    INDEX 00 39:26:73
    INDEX 01 39:29:47
  TRACK 12 AUDIO
    TITLE "Valse J'Aime"
    REM REPLAYGAIN_TRACK_GAIN -7.92 dB
    REM REPLAYGAIN_TRACK_PEAK 0.972900
    INDEX 00 43:35:25
    INDEX 01 43:38:15
  TRACK 13 AUDIO
    TITLE "Courir avec Walker"
    REM REPLAYGAIN_TRACK_GAIN -5.19 dB
    REM REPLAYGAIN_TRACK_PEAK 0.972900
    INDEX 00 47:30:05
    INDEX 01 47:32:70
  TRACK 14 AUDIO
    TITLE "Ma Vie S'est Arrêtée"
    REM REPLAYGAIN_TRACK_GAIN -5.60 dB
    REM REPLAYGAIN_TRACK_PEAK 0.972900
    INDEX 00 51:31:08
    INDEX 01 51:33:72

TAG:Artist=BeauSoliel
TAG:Album=L'Amour ou la Folie
TAG:Year=1997
TAG:Genre=Zydeco/Cajun
[/FORMAT]
